<svg xmlns="http://www.w3.org/2000/svg" viewBox="0 0 900 1200" width="900" height="1200">
  <defs><linearGradient id="sky" x1="0" y1="0" x2="0" y2="1"><stop offset="0" stop-color="#020617"/><stop offset="0.6" stop-color="#1e1b4b"/><stop offset="1" stop-color="#4c1d95"/></linearGradient></defs>
  <rect width="900" height="1200" fill="url(#sky)"/>
  <circle cx="0" cy="0" r="2.4" fill="#fff" opacity="0.4"/><circle cx="137" cy="89" r="1.3" fill="#fff" opacity="0.52"/><circle cx="274" cy="178" r="1.3" fill="#fff" opacity="0.64"/><circle cx="411" cy="267" r="1.3" fill="#fff" opacity="0.76"/><circle cx="548" cy="356" r="1.3" fill="#fff" opacity="0.88"/><circle cx="685" cy="445" r="1.3" fill="#fff" opacity="0.4"/><circle cx="822" cy="14" r="1.3" fill="#fff" opacity="0.52"/><circle cx="59" cy="103" r="2.4" fill="#fff" opacity="0.64"/><circle cx="196" cy="192" r="1.3" fill="#fff" opacity="0.76"/><circle cx="333" cy="281" r="1.3" fill="#fff" opacity="0.88"/><circle cx="470" cy="370" r="1.3" fill="#fff" opacity="0.4"/><circle cx="607" cy="459" r="1.3" fill="#fff" opacity="0.52"/><circle cx="744" cy="28" r="1.3" fill="#fff" opacity="0.64"/><circle cx="881" cy="117" r="1.3" fill="#fff" opacity="0.76"/><circle cx="118" cy="206" r="2.4" fill="#fff" opacity="0.88"/><circle cx="255" cy="295" r="1.3" fill="#fff" opacity="0.4"/><circle cx="392" cy="384" r="1.3" fill="#fff" opacity="0.52"/><circle cx="529" cy="473" r="1.3" fill="#fff" opacity="0.64"/><circle cx="666" cy="42" r="1.3" fill="#fff" opacity="0.76"/><circle cx="803" cy="131" r="1.3" fill="#fff" opacity="0.88"/><circle cx="40" cy="220" r="1.3" fill="#fff" opacity="0.4"/><circle cx="177" cy="309" r="2.4" fill="#fff" opacity="0.52"/><circle cx="314" cy="398" r="1.3" fill="#fff" opacity="0.64"/><circle cx="451" cy="487" r="1.3" fill="#fff" opacity="0.76"/><circle cx="588" cy="56" r="1.3" fill="#fff" opacity="0.88"/><circle cx="725" cy="145" r="1.3" fill="#fff" opacity="0.4"/><circle cx="862" cy="234" r="1.3" fill="#fff" opacity="0.52"/><circle cx="99" cy="323" r="1.3" fill="#fff" opacity="0.64"/><circle cx="236" cy="412" r="2.4" fill="#fff" opacity="0.76"/><circle cx="373" cy="501" r="1.3" fill="#fff" opacity="0.88"/><circle cx="510" cy="70" r="1.3" fill="#fff" opacity="0.4"/><circle cx="647" cy="159" r="1.3" fill="#fff" opacity="0.52"/><circle cx="784" cy="248" r="1.3" fill="#fff" opacity="0.64"/><circle cx="21" cy="337" r="1.3" fill="#fff" opacity="0.76"/><circle cx="158" cy="426" r="1.3" fill="#fff" opacity="0.88"/><circle cx="295" cy="515" r="2.4" fill="#fff" opacity="0.4"/><circle cx="432" cy="84" r="1.3" fill="#fff" opacity="0.52"/><circle cx="569" cy="173" r="1.3" fill="#fff" opacity="0.64"/><circle cx="706" cy="262" r="1.3" fill="#fff" opacity="0.76"/><circle cx="843" cy="351" r="1.3" fill="#fff" opacity="0.88"/><circle cx="80" cy="440" r="1.3" fill="#fff" opacity="0.4"/><circle cx="217" cy="9" r="1.3" fill="#fff" opacity="0.52"/><circle cx="354" cy="98" r="2.4" fill="#fff" opacity="0.64"/><circle cx="491" cy="187" r="1.3" fill="#fff" opacity="0.76"/><circle cx="628" cy="276" r="1.3" fill="#fff" opacity="0.88"/><circle cx="765" cy="365" r="1.3" fill="#fff" opacity="0.4"/><circle cx="2" cy="454" r="1.3" fill="#fff" opacity="0.52"/><circle cx="139" cy="23" r="1.3" fill="#fff" opacity="0.64"/><circle cx="276" cy="112" r="1.3" fill="#fff" opacity="0.76"/><circle cx="413" cy="201" r="2.4" fill="#fff" opacity="0.88"/><circle cx="550" cy="290" r="1.3" fill="#fff" opacity="0.4"/><circle cx="687" cy="379" r="1.3" fill="#fff" opacity="0.52"/><circle cx="824" cy="468" r="1.3" fill="#fff" opacity="0.64"/><circle cx="61" cy="37" r="1.3" fill="#fff" opacity="0.76"/><circle cx="198" cy="126" r="1.3" fill="#fff" opacity="0.88"/><circle cx="335" cy="215" r="1.3" fill="#fff" opacity="0.4"/><circle cx="472" cy="304" r="2.4" fill="#fff" opacity="0.52"/><circle cx="609" cy="393" r="1.3" fill="#fff" opacity="0.64"/><circle cx="746" cy="482" r="1.3" fill="#fff" opacity="0.76"/><circle cx="883" cy="51" r="1.3" fill="#fff" opacity="0.88"/><circle cx="120" cy="140" r="1.3" fill="#fff" opacity="0.4"/><circle cx="257" cy="229" r="1.3" fill="#fff" opacity="0.52"/><circle cx="394" cy="318" r="1.3" fill="#fff" opacity="0.64"/><circle cx="531" cy="407" r="2.4" fill="#fff" opacity="0.76"/><circle cx="668" cy="496" r="1.3" fill="#fff" opacity="0.88"/><circle cx="805" cy="65" r="1.3" fill="#fff" opacity="0.4"/><circle cx="42" cy="154" r="1.3" fill="#fff" opacity="0.52"/><circle cx="179" cy="243" r="1.3" fill="#fff" opacity="0.64"/><circle cx="316" cy="332" r="1.3" fill="#fff" opacity="0.76"/><circle cx="453" cy="421" r="1.3" fill="#fff" opacity="0.88"/><circle cx="690" cy="210" r="70" fill="#f1f5f9"/><circle cx="720" cy="190" r="66" fill="#1e1b4b"/>
  <rect x="0" y="560" width="150" height="530" fill="#1e293b"/><rect x="14" y="582" width="14" height="20" rx="2" fill="#fde68a" opacity="0.95"/><rect x="40" y="582" width="14" height="20" rx="2" fill="#1e293b" opacity="0.6"/><rect x="66" y="582" width="14" height="20" rx="2" fill="#1e293b" opacity="0.6"/><rect x="92" y="582" width="14" height="20" rx="2" fill="#fde68a" opacity="0.95"/><rect x="118" y="582" width="14" height="20" rx="2" fill="#1e293b" opacity="0.6"/><rect x="14" y="620" width="14" height="20" rx="2" fill="#1e293b" opacity="0.6"/><rect x="40" y="620" width="14" height="20" rx="2" fill="#1e293b" opacity="0.6"/><rect x="66" y="620" width="14" height="20" rx="2" fill="#fde68a" opacity="0.95"/><rect x="92" y="620" width="14" height="20" rx="2" fill="#1e293b" opacity="0.6"/><rect x="118" y="620" width="14" height="20" rx="2" fill="#fde68a" opacity="0.95"/><rect x="14" y="658" width="14" height="20" rx="2" fill="#1e293b" opacity="0.6"/><rect x="40" y="658" width="14" height="20" rx="2" fill="#fde68a" opacity="0.95"/><rect x="66" y="658" width="14" height="20" rx="2" fill="#1e293b" opacity="0.6"/><rect x="92" y="658" width="14" height="20" rx="2" fill="#fde68a" opacity="0.95"/><rect x="118" y="658" width="14" height="20" rx="2" fill="#1e293b" opacity="0.6"/><rect x="14" y="696" width="14" height="20" rx="2" fill="#fde68a" opacity="0.95"/><rect x="40" y="696" width="14" height="20" rx="2" fill="#1e293b" opacity="0.6"/><rect x="66" y="696" width="14" height="20" rx="2" fill="#fde68a" opacity="0.95"/><rect x="92" y="696" width="14" height="20" rx="2" fill="#1e293b" opacity="0.6"/><rect x="118" y="696" width="14" height="20" rx="2" fill="#1e293b" opacity="0.6"/><rect x="14" y="734" width="14" height="20" rx="2" fill="#1e293b" opacity="0.6"/><rect x="40" y="734" width="14" height="20" rx="2" fill="#fde68a" opacity="0.95"/><rect x="66" y="734" width="14" height="20" rx="2" fill="#1e293b" opacity="0.6"/><rect x="92" y="734" width="14" height="20" rx="2" fill="#1e293b" opacity="0.6"/><rect x="118" y="734" width="14" height="20" rx="2" fill="#fde68a" opacity="0.95"/><rect x="14" y="772" width="14" height="20" rx="2" fill="#fde68a" opacity="0.95"/><rect x="40" y="772" width="14" height="20" rx="2" fill="#1e293b" opacity="0.6"/><rect x="66" y="772" width="14" height="20" rx="2" fill="#1e293b" opacity="0.6"/><rect x="92" y="772" width="14" height="20" rx="2" fill="#fde68a" opacity="0.95"/><rect x="118" y="772" width="14" height="20" rx="2" fill="#1e293b" opacity="0.6"/><rect x="14" y="810" width="14" height="20" rx="2" fill="#1e293b" opacity="0.6"/><rect x="40" y="810" width="14" height="20" rx="2" fill="#1e293b" opacity="0.6"/><rect x="66" y="810" width="14" height="20" rx="2" fill="#fde68a" opacity="0.95"/><rect x="92" y="810" width="14" height="20" rx="2" fill="#1e293b" opacity="0.6"/><rect x="118" y="810" width="14" height="20" rx="2" fill="#fde68a" opacity="0.95"/><rect x="14" y="848" width="14" height="20" rx="2" fill="#1e293b" opacity="0.6"/><rect x="40" y="848" width="14" height="20" rx="2" fill="#fde68a" opacity="0.95"/><rect x="66" y="848" width="14" height="20" rx="2" fill="#1e293b" opacity="0.6"/><rect x="92" y="848" width="14" height="20" rx="2" fill="#fde68a" opacity="0.95"/><rect x="118" y="848" width="14" height="20" rx="2" fill="#1e293b" opacity="0.6"/><rect x="14" y="886" width="14" height="20" rx="2" fill="#fde68a" opacity="0.95"/><rect x="40" y="886" width="14" height="20" rx="2" fill="#1e293b" opacity="0.6"/><rect x="66" y="886" width="14" height="20" rx="2" fill="#fde68a" opacity="0.95"/><rect x="92" y="886" width="14" height="20" rx="2" fill="#1e293b" opacity="0.6"/><rect x="118" y="886" width="14" height="20" rx="2" fill="#1e293b" opacity="0.6"/><rect x="14" y="924" width="14" height="20" rx="2" fill="#1e293b" opacity="0.6"/><rect x="40" y="924" width="14" height="20" rx="2" fill="#fde68a" opacity="0.95"/><rect x="66" y="924" width="14" height="20" rx="2" fill="#1e293b" opacity="0.6"/><rect x="92" y="924" width="14" height="20" rx="2" fill="#1e293b" opacity="0.6"/><rect x="118" y="924" width="14" height="20" rx="2" fill="#fde68a" opacity="0.95"/><rect x="14" y="962" width="14" height="20" rx="2" fill="#fde68a" opacity="0.95"/><rect x="40" y="962" width="14" height="20" rx="2" fill="#1e293b" opacity="0.6"/><rect x="66" y="962" width="14" height="20" rx="2" fill="#1e293b" opacity="0.6"/><rect x="92" y="962" width="14" height="20" rx="2" fill="#fde68a" opacity="0.95"/><rect x="118" y="962" width="14" height="20" rx="2" fill="#1e293b" opacity="0.6"/><rect x="14" y="1000" width="14" height="20" rx="2" fill="#1e293b" opacity="0.6"/><rect x="40" y="1000" width="14" height="20" rx="2" fill="#1e293b" opacity="0.6"/><rect x="66" y="1000" width="14" height="20" rx="2" fill="#fde68a" opacity="0.95"/><rect x="92" y="1000" width="14" height="20" rx="2" fill="#1e293b" opacity="0.6"/><rect x="118" y="1000" width="14" height="20" rx="2" fill="#fde68a" opacity="0.95"/><rect x="140" y="380" width="120" height="710" fill="#0f172a"/><rect x="197" y="320" width="6" height="60" fill="#0f172a"/><circle cx="200" cy="318" r="5" fill="#f87171"/><rect x="154" y="402" width="14" height="20" rx="2" fill="#fde68a" opacity="0.95"/><rect x="180" y="402" width="14" height="20" rx="2" fill="#1e293b" opacity="0.6"/><rect x="206" y="402" width="14" height="20" rx="2" fill="#fde68a" opacity="0.95"/><rect x="154" y="440" width="14" height="20" rx="2" fill="#1e293b" opacity="0.6"/><rect x="180" y="440" width="14" height="20" rx="2" fill="#fde68a" opacity="0.95"/><rect x="206" y="440" width="14" height="20" rx="2" fill="#1e293b" opacity="0.6"/><rect x="154" y="478" width="14" height="20" rx="2" fill="#fde68a" opacity="0.95"/><rect x="180" y="478" width="14" height="20" rx="2" fill="#1e293b" opacity="0.6"/><rect x="206" y="478" width="14" height="20" rx="2" fill="#1e293b" opacity="0.6"/><rect x="154" y="516" width="14" height="20" rx="2" fill="#1e293b" opacity="0.6"/><rect x="180" y="516" width="14" height="20" rx="2" fill="#1e293b" opacity="0.6"/><rect x="206" y="516" width="14" height="20" rx="2" fill="#fde68a" opacity="0.95"/><rect x="154" y="554" width="14" height="20" rx="2" fill="#1e293b" opacity="0.6"/><rect x="180" y="554" width="14" height="20" rx="2" fill="#fde68a" opacity="0.95"/><rect x="206" y="554" width="14" height="20" rx="2" fill="#1e293b" opacity="0.6"/><rect x="154" y="592" width="14" height="20" rx="2" fill="#fde68a" opacity="0.95"/><rect x="180" y="592" width="14" height="20" rx="2" fill="#1e293b" opacity="0.6"/><rect x="206" y="592" width="14" height="20" rx="2" fill="#fde68a" opacity="0.95"/><rect x="154" y="630" width="14" height="20" rx="2" fill="#1e293b" opacity="0.6"/><rect x="180" y="630" width="14" height="20" rx="2" fill="#fde68a" opacity="0.95"/><rect x="206" y="630" width="14" height="20" rx="2" fill="#1e293b" opacity="0.6"/><rect x="154" y="668" width="14" height="20" rx="2" fill="#fde68a" opacity="0.95"/><rect x="180" y="668" width="14" height="20" rx="2" fill="#1e293b" opacity="0.6"/><rect x="206" y="668" width="14" height="20" rx="2" fill="#1e293b" opacity="0.6"/><rect x="154" y="706" width="14" height="20" rx="2" fill="#1e293b" opacity="0.6"/><rect x="180" y="706" width="14" height="20" rx="2" fill="#1e293b" opacity="0.6"/><rect x="206" y="706" width="14" height="20" rx="2" fill="#fde68a" opacity="0.95"/><rect x="154" y="744" width="14" height="20" rx="2" fill="#1e293b" opacity="0.6"/><rect x="180" y="744" width="14" height="20" rx="2" fill="#fde68a" opacity="0.95"/><rect x="206" y="744" width="14" height="20" rx="2" fill="#1e293b" opacity="0.6"/><rect x="154" y="782" width="14" height="20" rx="2" fill="#fde68a" opacity="0.95"/><rect x="180" y="782" width="14" height="20" rx="2" fill="#1e293b" opacity="0.6"/><rect x="206" y="782" width="14" height="20" rx="2" fill="#fde68a" opacity="0.95"/><rect x="154" y="820" width="14" height="20" rx="2" fill="#1e293b" opacity="0.6"/><rect x="180" y="820" width="14" height="20" rx="2" fill="#fde68a" opacity="0.95"/><rect x="206" y="820" width="14" height="20" rx="2" fill="#1e293b" opacity="0.6"/><rect x="154" y="858" width="14" height="20" rx="2" fill="#fde68a" opacity="0.95"/><rect x="180" y="858" width="14" height="20" rx="2" fill="#1e293b" opacity="0.6"/><rect x="206" y="858" width="14" height="20" rx="2" fill="#1e293b" opacity="0.6"/><rect x="154" y="896" width="14" height="20" rx="2" fill="#1e293b" opacity="0.6"/><rect x="180" y="896" width="14" height="20" rx="2" fill="#1e293b" opacity="0.6"/><rect x="206" y="896" width="14" height="20" rx="2" fill="#fde68a" opacity="0.95"/><rect x="154" y="934" width="14" height="20" rx="2" fill="#1e293b" opacity="0.6"/><rect x="180" y="934" width="14" height="20" rx="2" fill="#fde68a" opacity="0.95"/><rect x="206" y="934" width="14" height="20" rx="2" fill="#1e293b" opacity="0.6"/><rect x="154" y="972" width="14" height="20" rx="2" fill="#fde68a" opacity="0.95"/><rect x="180" y="972" width="14" height="20" rx="2" fill="#1e293b" opacity="0.6"/><rect x="206" y="972" width="14" height="20" rx="2" fill="#fde68a" opacity="0.95"/><rect x="154" y="1010" width="14" height="20" rx="2" fill="#1e293b" opacity="0.6"/><rect x="180" y="1010" width="14" height="20" rx="2" fill="#fde68a" opacity="0.95"/><rect x="206" y="1010" width="14" height="20" rx="2" fill="#1e293b" opacity="0.6"/><rect x="250" y="470" width="170" height="620" fill="#172033"/><rect x="264" y="492" width="14" height="20" rx="2" fill="#1e293b" opacity="0.6"/><rect x="290" y="492" width="14" height="20" rx="2" fill="#1e293b" opacity="0.6"/><rect x="316" y="492" width="14" height="20" rx="2" fill="#fde68a" opacity="0.95"/><rect x="342" y="492" width="14" height="20" rx="2" fill="#1e293b" opacity="0.6"/><rect x="368" y="492" width="14" height="20" rx="2" fill="#fde68a" opacity="0.95"/><rect x="264" y="530" width="14" height="20" rx="2" fill="#1e293b" opacity="0.6"/><rect x="290" y="530" width="14" height="20" rx="2" fill="#fde68a" opacity="0.95"/><rect x="316" y="530" width="14" height="20" rx="2" fill="#1e293b" opacity="0.6"/><rect x="342" y="530" width="14" height="20" rx="2" fill="#fde68a" opacity="0.95"/><rect x="368" y="530" width="14" height="20" rx="2" fill="#1e293b" opacity="0.6"/><rect x="264" y="568" width="14" height="20" rx="2" fill="#fde68a" opacity="0.95"/><rect x="290" y="568" width="14" height="20" rx="2" fill="#1e293b" opacity="0.6"/><rect x="316" y="568" width="14" height="20" rx="2" fill="#fde68a" opacity="0.95"/><rect x="342" y="568" width="14" height="20" rx="2" fill="#1e293b" opacity="0.6"/><rect x="368" y="568" width="14" height="20" rx="2" fill="#1e293b" opacity="0.6"/><rect x="264" y="606" width="14" height="20" rx="2" fill="#1e293b" opacity="0.6"/><rect x="290" y="606" width="14" height="20" rx="2" fill="#fde68a" opacity="0.95"/><rect x="316" y="606" width="14" height="20" rx="2" fill="#1e293b" opacity="0.6"/><rect x="342" y="606" width="14" height="20" rx="2" fill="#1e293b" opacity="0.6"/><rect x="368" y="606" width="14" height="20" rx="2" fill="#fde68a" opacity="0.95"/><rect x="264" y="644" width="14" height="20" rx="2" fill="#fde68a" opacity="0.95"/><rect x="290" y="644" width="14" height="20" rx="2" fill="#1e293b" opacity="0.6"/><rect x="316" y="644" width="14" height="20" rx="2" fill="#1e293b" opacity="0.6"/><rect x="342" y="644" width="14" height="20" rx="2" fill="#fde68a" opacity="0.95"/><rect x="368" y="644" width="14" height="20" rx="2" fill="#1e293b" opacity="0.6"/><rect x="264" y="682" width="14" height="20" rx="2" fill="#1e293b" opacity="0.6"/><rect x="290" y="682" width="14" height="20" rx="2" fill="#1e293b" opacity="0.6"/><rect x="316" y="682" width="14" height="20" rx="2" fill="#fde68a" opacity="0.95"/><rect x="342" y="682" width="14" height="20" rx="2" fill="#1e293b" opacity="0.6"/><rect x="368" y="682" width="14" height="20" rx="2" fill="#fde68a" opacity="0.95"/><rect x="264" y="720" width="14" height="20" rx="2" fill="#1e293b" opacity="0.6"/><rect x="290" y="720" width="14" height="20" rx="2" fill="#fde68a" opacity="0.95"/><rect x="316" y="720" width="14" height="20" rx="2" fill="#1e293b" opacity="0.6"/><rect x="342" y="720" width="14" height="20" rx="2" fill="#fde68a" opacity="0.95"/><rect x="368" y="720" width="14" height="20" rx="2" fill="#1e293b" opacity="0.6"/><rect x="264" y="758" width="14" height="20" rx="2" fill="#fde68a" opacity="0.95"/><rect x="290" y="758" width="14" height="20" rx="2" fill="#1e293b" opacity="0.6"/><rect x="316" y="758" width="14" height="20" rx="2" fill="#fde68a" opacity="0.95"/><rect x="342" y="758" width="14" height="20" rx="2" fill="#1e293b" opacity="0.6"/><rect x="368" y="758" width="14" height="20" rx="2" fill="#1e293b" opacity="0.6"/><rect x="264" y="796" width="14" height="20" rx="2" fill="#1e293b" opacity="0.6"/><rect x="290" y="796" width="14" height="20" rx="2" fill="#fde68a" opacity="0.95"/><rect x="316" y="796" width="14" height="20" rx="2" fill="#1e293b" opacity="0.6"/><rect x="342" y="796" width="14" height="20" rx="2" fill="#1e293b" opacity="0.6"/><rect x="368" y="796" width="14" height="20" rx="2" fill="#fde68a" opacity="0.95"/><rect x="264" y="834" width="14" height="20" rx="2" fill="#fde68a" opacity="0.95"/><rect x="290" y="834" width="14" height="20" rx="2" fill="#1e293b" opacity="0.6"/><rect x="316" y="834" width="14" height="20" rx="2" fill="#1e293b" opacity="0.6"/><rect x="342" y="834" width="14" height="20" rx="2" fill="#fde68a" opacity="0.95"/><rect x="368" y="834" width="14" height="20" rx="2" fill="#1e293b" opacity="0.6"/><rect x="264" y="872" width="14" height="20" rx="2" fill="#1e293b" opacity="0.6"/><rect x="290" y="872" width="14" height="20" rx="2" fill="#1e293b" opacity="0.6"/><rect x="316" y="872" width="14" height="20" rx="2" fill="#fde68a" opacity="0.95"/><rect x="342" y="872" width="14" height="20" rx="2" fill="#1e293b" opacity="0.6"/><rect x="368" y="872" width="14" height="20" rx="2" fill="#fde68a" opacity="0.95"/><rect x="264" y="910" width="14" height="20" rx="2" fill="#1e293b" opacity="0.6"/><rect x="290" y="910" width="14" height="20" rx="2" fill="#fde68a" opacity="0.95"/><rect x="316" y="910" width="14" height="20" rx="2" fill="#1e293b" opacity="0.6"/><rect x="342" y="910" width="14" height="20" rx="2" fill="#fde68a" opacity="0.95"/><rect x="368" y="910" width="14" height="20" rx="2" fill="#1e293b" opacity="0.6"/><rect x="264" y="948" width="14" height="20" rx="2" fill="#fde68a" opacity="0.95"/><rect x="290" y="948" width="14" height="20" rx="2" fill="#1e293b" opacity="0.6"/><rect x="316" y="948" width="14" height="20" rx="2" fill="#fde68a" opacity="0.95"/><rect x="342" y="948" width="14" height="20" rx="2" fill="#1e293b" opacity="0.6"/><rect x="368" y="948" width="14" height="20" rx="2" fill="#1e293b" opacity="0.6"/><rect x="264" y="986" width="14" height="20" rx="2" fill="#1e293b" opacity="0.6"/><rect x="290" y="986" width="14" height="20" rx="2" fill="#fde68a" opacity="0.95"/><rect x="316" y="986" width="14" height="20" rx="2" fill="#1e293b" opacity="0.6"/><rect x="342" y="986" width="14" height="20" rx="2" fill="#1e293b" opacity="0.6"/><rect x="368" y="986" width="14" height="20" rx="2" fill="#fde68a" opacity="0.95"/><rect x="264" y="1024" width="14" height="20" rx="2" fill="#fde68a" opacity="0.95"/><rect x="290" y="1024" width="14" height="20" rx="2" fill="#1e293b" opacity="0.6"/><rect x="316" y="1024" width="14" height="20" rx="2" fill="#1e293b" opacity="0.6"/><rect x="342" y="1024" width="14" height="20" rx="2" fill="#fde68a" opacity="0.95"/><rect x="368" y="1024" width="14" height="20" rx="2" fill="#1e293b" opacity="0.6"/><rect x="410" y="260" width="110" height="830" fill="#1e293b"/><rect x="462" y="200" width="6" height="60" fill="#1e293b"/><circle cx="465" cy="198" r="5" fill="#f87171"/><rect x="424" y="282" width="14" height="20" rx="2" fill="#1e293b" opacity="0.6"/><rect x="450" y="282" width="14" height="20" rx="2" fill="#fde68a" opacity="0.95"/><rect x="476" y="282" width="14" height="20" rx="2" fill="#1e293b" opacity="0.6"/><rect x="424" y="320" width="14" height="20" rx="2" fill="#fde68a" opacity="0.95"/><rect x="450" y="320" width="14" height="20" rx="2" fill="#1e293b" opacity="0.6"/><rect x="476" y="320" width="14" height="20" rx="2" fill="#1e293b" opacity="0.6"/><rect x="424" y="358" width="14" height="20" rx="2" fill="#1e293b" opacity="0.6"/><rect x="450" y="358" width="14" height="20" rx="2" fill="#1e293b" opacity="0.6"/><rect x="476" y="358" width="14" height="20" rx="2" fill="#fde68a" opacity="0.95"/><rect x="424" y="396" width="14" height="20" rx="2" fill="#1e293b" opacity="0.6"/><rect x="450" y="396" width="14" height="20" rx="2" fill="#fde68a" opacity="0.95"/><rect x="476" y="396" width="14" height="20" rx="2" fill="#1e293b" opacity="0.6"/><rect x="424" y="434" width="14" height="20" rx="2" fill="#fde68a" opacity="0.95"/><rect x="450" y="434" width="14" height="20" rx="2" fill="#1e293b" opacity="0.6"/><rect x="476" y="434" width="14" height="20" rx="2" fill="#fde68a" opacity="0.95"/><rect x="424" y="472" width="14" height="20" rx="2" fill="#1e293b" opacity="0.6"/><rect x="450" y="472" width="14" height="20" rx="2" fill="#fde68a" opacity="0.95"/><rect x="476" y="472" width="14" height="20" rx="2" fill="#1e293b" opacity="0.6"/><rect x="424" y="510" width="14" height="20" rx="2" fill="#fde68a" opacity="0.95"/><rect x="450" y="510" width="14" height="20" rx="2" fill="#1e293b" opacity="0.6"/><rect x="476" y="510" width="14" height="20" rx="2" fill="#1e293b" opacity="0.6"/><rect x="424" y="548" width="14" height="20" rx="2" fill="#1e293b" opacity="0.6"/><rect x="450" y="548" width="14" height="20" rx="2" fill="#1e293b" opacity="0.6"/><rect x="476" y="548" width="14" height="20" rx="2" fill="#fde68a" opacity="0.95"/><rect x="424" y="586" width="14" height="20" rx="2" fill="#1e293b" opacity="0.6"/><rect x="450" y="586" width="14" height="20" rx="2" fill="#fde68a" opacity="0.95"/><rect x="476" y="586" width="14" height="20" rx="2" fill="#1e293b" opacity="0.6"/><rect x="424" y="624" width="14" height="20" rx="2" fill="#fde68a" opacity="0.95"/><rect x="450" y="624" width="14" height="20" rx="2" fill="#1e293b" opacity="0.6"/><rect x="476" y="624" width="14" height="20" rx="2" fill="#fde68a" opacity="0.95"/><rect x="424" y="662" width="14" height="20" rx="2" fill="#1e293b" opacity="0.6"/><rect x="450" y="662" width="14" height="20" rx="2" fill="#fde68a" opacity="0.95"/><rect x="476" y="662" width="14" height="20" rx="2" fill="#1e293b" opacity="0.6"/><rect x="424" y="700" width="14" height="20" rx="2" fill="#fde68a" opacity="0.95"/><rect x="450" y="700" width="14" height="20" rx="2" fill="#1e293b" opacity="0.6"/><rect x="476" y="700" width="14" height="20" rx="2" fill="#1e293b" opacity="0.6"/><rect x="424" y="738" width="14" height="20" rx="2" fill="#1e293b" opacity="0.6"/><rect x="450" y="738" width="14" height="20" rx="2" fill="#1e293b" opacity="0.6"/><rect x="476" y="738" width="14" height="20" rx="2" fill="#fde68a" opacity="0.95"/><rect x="424" y="776" width="14" height="20" rx="2" fill="#1e293b" opacity="0.6"/><rect x="450" y="776" width="14" height="20" rx="2" fill="#fde68a" opacity="0.95"/><rect x="476" y="776" width="14" height="20" rx="2" fill="#1e293b" opacity="0.6"/><rect x="424" y="814" width="14" height="20" rx="2" fill="#fde68a" opacity="0.95"/><rect x="450" y="814" width="14" height="20" rx="2" fill="#1e293b" opacity="0.6"/><rect x="476" y="814" width="14" height="20" rx="2" fill="#fde68a" opacity="0.95"/><rect x="424" y="852" width="14" height="20" rx="2" fill="#1e293b" opacity="0.6"/><rect x="450" y="852" width="14" height="20" rx="2" fill="#fde68a" opacity="0.95"/><rect x="476" y="852" width="14" height="20" rx="2" fill="#1e293b" opacity="0.6"/><rect x="424" y="890" width="14" height="20" rx="2" fill="#fde68a" opacity="0.95"/><rect x="450" y="890" width="14" height="20" rx="2" fill="#1e293b" opacity="0.6"/><rect x="476" y="890" width="14" height="20" rx="2" fill="#1e293b" opacity="0.6"/><rect x="424" y="928" width="14" height="20" rx="2" fill="#1e293b" opacity="0.6"/><rect x="450" y="928" width="14" height="20" rx="2" fill="#1e293b" opacity="0.6"/><rect x="476" y="928" width="14" height="20" rx="2" fill="#fde68a" opacity="0.95"/><rect x="424" y="966" width="14" height="20" rx="2" fill="#1e293b" opacity="0.6"/><rect x="450" y="966" width="14" height="20" rx="2" fill="#fde68a" opacity="0.95"/><rect x="476" y="966" width="14" height="20" rx="2" fill="#1e293b" opacity="0.6"/><rect x="424" y="1004" width="14" height="20" rx="2" fill="#fde68a" opacity="0.95"/><rect x="450" y="1004" width="14" height="20" rx="2" fill="#1e293b" opacity="0.6"/><rect x="476" y="1004" width="14" height="20" rx="2" fill="#fde68a" opacity="0.95"/><rect x="510" y="520" width="150" height="570" fill="#0f172a"/><rect x="524" y="542" width="14" height="20" rx="2" fill="#1e293b" opacity="0.6"/><rect x="550" y="542" width="14" height="20" rx="2" fill="#fde68a" opacity="0.95"/><rect x="576" y="542" width="14" height="20" rx="2" fill="#1e293b" opacity="0.6"/><rect x="602" y="542" width="14" height="20" rx="2" fill="#fde68a" opacity="0.95"/><rect x="628" y="542" width="14" height="20" rx="2" fill="#1e293b" opacity="0.6"/><rect x="524" y="580" width="14" height="20" rx="2" fill="#fde68a" opacity="0.95"/><rect x="550" y="580" width="14" height="20" rx="2" fill="#1e293b" opacity="0.6"/><rect x="576" y="580" width="14" height="20" rx="2" fill="#fde68a" opacity="0.95"/><rect x="602" y="580" width="14" height="20" rx="2" fill="#1e293b" opacity="0.6"/><rect x="628" y="580" width="14" height="20" rx="2" fill="#1e293b" opacity="0.6"/><rect x="524" y="618" width="14" height="20" rx="2" fill="#1e293b" opacity="0.6"/><rect x="550" y="618" width="14" height="20" rx="2" fill="#fde68a" opacity="0.95"/><rect x="576" y="618" width="14" height="20" rx="2" fill="#1e293b" opacity="0.6"/><rect x="602" y="618" width="14" height="20" rx="2" fill="#1e293b" opacity="0.6"/><rect x="628" y="618" width="14" height="20" rx="2" fill="#fde68a" opacity="0.95"/><rect x="524" y="656" width="14" height="20" rx="2" fill="#fde68a" opacity="0.95"/><rect x="550" y="656" width="14" height="20" rx="2" fill="#1e293b" opacity="0.6"/><rect x="576" y="656" width="14" height="20" rx="2" fill="#1e293b" opacity="0.6"/><rect x="602" y="656" width="14" height="20" rx="2" fill="#fde68a" opacity="0.95"/><rect x="628" y="656" width="14" height="20" rx="2" fill="#1e293b" opacity="0.6"/><rect x="524" y="694" width="14" height="20" rx="2" fill="#1e293b" opacity="0.6"/><rect x="550" y="694" width="14" height="20" rx="2" fill="#1e293b" opacity="0.6"/><rect x="576" y="694" width="14" height="20" rx="2" fill="#fde68a" opacity="0.95"/><rect x="602" y="694" width="14" height="20" rx="2" fill="#1e293b" opacity="0.6"/><rect x="628" y="694" width="14" height="20" rx="2" fill="#fde68a" opacity="0.95"/><rect x="524" y="732" width="14" height="20" rx="2" fill="#1e293b" opacity="0.6"/><rect x="550" y="732" width="14" height="20" rx="2" fill="#fde68a" opacity="0.95"/><rect x="576" y="732" width="14" height="20" rx="2" fill="#1e293b" opacity="0.6"/><rect x="602" y="732" width="14" height="20" rx="2" fill="#fde68a" opacity="0.95"/><rect x="628" y="732" width="14" height="20" rx="2" fill="#1e293b" opacity="0.6"/><rect x="524" y="770" width="14" height="20" rx="2" fill="#fde68a" opacity="0.95"/><rect x="550" y="770" width="14" height="20" rx="2" fill="#1e293b" opacity="0.6"/><rect x="576" y="770" width="14" height="20" rx="2" fill="#fde68a" opacity="0.95"/><rect x="602" y="770" width="14" height="20" rx="2" fill="#1e293b" opacity="0.6"/><rect x="628" y="770" width="14" height="20" rx="2" fill="#1e293b" opacity="0.6"/><rect x="524" y="808" width="14" height="20" rx="2" fill="#1e293b" opacity="0.6"/><rect x="550" y="808" width="14" height="20" rx="2" fill="#fde68a" opacity="0.95"/><rect x="576" y="808" width="14" height="20" rx="2" fill="#1e293b" opacity="0.6"/><rect x="602" y="808" width="14" height="20" rx="2" fill="#1e293b" opacity="0.6"/><rect x="628" y="808" width="14" height="20" rx="2" fill="#fde68a" opacity="0.95"/><rect x="524" y="846" width="14" height="20" rx="2" fill="#fde68a" opacity="0.95"/><rect x="550" y="846" width="14" height="20" rx="2" fill="#1e293b" opacity="0.6"/><rect x="576" y="846" width="14" height="20" rx="2" fill="#1e293b" opacity="0.6"/><rect x="602" y="846" width="14" height="20" rx="2" fill="#fde68a" opacity="0.95"/><rect x="628" y="846" width="14" height="20" rx="2" fill="#1e293b" opacity="0.6"/><rect x="524" y="884" width="14" height="20" rx="2" fill="#1e293b" opacity="0.6"/><rect x="550" y="884" width="14" height="20" rx="2" fill="#1e293b" opacity="0.6"/><rect x="576" y="884" width="14" height="20" rx="2" fill="#fde68a" opacity="0.95"/><rect x="602" y="884" width="14" height="20" rx="2" fill="#1e293b" opacity="0.6"/><rect x="628" y="884" width="14" height="20" rx="2" fill="#fde68a" opacity="0.95"/><rect x="524" y="922" width="14" height="20" rx="2" fill="#1e293b" opacity="0.6"/><rect x="550" y="922" width="14" height="20" rx="2" fill="#fde68a" opacity="0.95"/><rect x="576" y="922" width="14" height="20" rx="2" fill="#1e293b" opacity="0.6"/><rect x="602" y="922" width="14" height="20" rx="2" fill="#fde68a" opacity="0.95"/><rect x="628" y="922" width="14" height="20" rx="2" fill="#1e293b" opacity="0.6"/><rect x="524" y="960" width="14" height="20" rx="2" fill="#fde68a" opacity="0.95"/><rect x="550" y="960" width="14" height="20" rx="2" fill="#1e293b" opacity="0.6"/><rect x="576" y="960" width="14" height="20" rx="2" fill="#fde68a" opacity="0.95"/><rect x="602" y="960" width="14" height="20" rx="2" fill="#1e293b" opacity="0.6"/><rect x="628" y="960" width="14" height="20" rx="2" fill="#1e293b" opacity="0.6"/><rect x="524" y="998" width="14" height="20" rx="2" fill="#1e293b" opacity="0.6"/><rect x="550" y="998" width="14" height="20" rx="2" fill="#fde68a" opacity="0.95"/><rect x="576" y="998" width="14" height="20" rx="2" fill="#1e293b" opacity="0.6"/><rect x="602" y="998" width="14" height="20" rx="2" fill="#1e293b" opacity="0.6"/><rect x="628" y="998" width="14" height="20" rx="2" fill="#fde68a" opacity="0.95"/><rect x="650" y="340" width="130" height="750" fill="#172033"/><rect x="712" y="280" width="6" height="60" fill="#172033"/><circle cx="715" cy="278" r="5" fill="#f87171"/><rect x="664" y="362" width="14" height="20" rx="2" fill="#fde68a" opacity="0.95"/><rect x="690" y="362" width="14" height="20" rx="2" fill="#1e293b" opacity="0.6"/><rect x="716" y="362" width="14" height="20" rx="2" fill="#1e293b" opacity="0.6"/><rect x="742" y="362" width="14" height="20" rx="2" fill="#fde68a" opacity="0.95"/><rect x="664" y="400" width="14" height="20" rx="2" fill="#1e293b" opacity="0.6"/><rect x="690" y="400" width="14" height="20" rx="2" fill="#1e293b" opacity="0.6"/><rect x="716" y="400" width="14" height="20" rx="2" fill="#fde68a" opacity="0.95"/><rect x="742" y="400" width="14" height="20" rx="2" fill="#1e293b" opacity="0.6"/><rect x="664" y="438" width="14" height="20" rx="2" fill="#1e293b" opacity="0.6"/><rect x="690" y="438" width="14" height="20" rx="2" fill="#fde68a" opacity="0.95"/><rect x="716" y="438" width="14" height="20" rx="2" fill="#1e293b" opacity="0.6"/><rect x="742" y="438" width="14" height="20" rx="2" fill="#fde68a" opacity="0.95"/><rect x="664" y="476" width="14" height="20" rx="2" fill="#fde68a" opacity="0.95"/><rect x="690" y="476" width="14" height="20" rx="2" fill="#1e293b" opacity="0.6"/><rect x="716" y="476" width="14" height="20" rx="2" fill="#fde68a" opacity="0.95"/><rect x="742" y="476" width="14" height="20" rx="2" fill="#1e293b" opacity="0.6"/><rect x="664" y="514" width="14" height="20" rx="2" fill="#1e293b" opacity="0.6"/><rect x="690" y="514" width="14" height="20" rx="2" fill="#fde68a" opacity="0.95"/><rect x="716" y="514" width="14" height="20" rx="2" fill="#1e293b" opacity="0.6"/><rect x="742" y="514" width="14" height="20" rx="2" fill="#1e293b" opacity="0.6"/><rect x="664" y="552" width="14" height="20" rx="2" fill="#fde68a" opacity="0.95"/><rect x="690" y="552" width="14" height="20" rx="2" fill="#1e293b" opacity="0.6"/><rect x="716" y="552" width="14" height="20" rx="2" fill="#1e293b" opacity="0.6"/><rect x="742" y="552" width="14" height="20" rx="2" fill="#fde68a" opacity="0.95"/><rect x="664" y="590" width="14" height="20" rx="2" fill="#1e293b" opacity="0.6"/><rect x="690" y="590" width="14" height="20" rx="2" fill="#1e293b" opacity="0.6"/><rect x="716" y="590" width="14" height="20" rx="2" fill="#fde68a" opacity="0.95"/><rect x="742" y="590" width="14" height="20" rx="2" fill="#1e293b" opacity="0.6"/><rect x="664" y="628" width="14" height="20" rx="2" fill="#1e293b" opacity="0.6"/><rect x="690" y="628" width="14" height="20" rx="2" fill="#fde68a" opacity="0.95"/><rect x="716" y="628" width="14" height="20" rx="2" fill="#1e293b" opacity="0.6"/><rect x="742" y="628" width="14" height="20" rx="2" fill="#fde68a" opacity="0.95"/><rect x="664" y="666" width="14" height="20" rx="2" fill="#fde68a" opacity="0.95"/><rect x="690" y="666" width="14" height="20" rx="2" fill="#1e293b" opacity="0.6"/><rect x="716" y="666" width="14" height="20" rx="2" fill="#fde68a" opacity="0.95"/><rect x="742" y="666" width="14" height="20" rx="2" fill="#1e293b" opacity="0.6"/><rect x="664" y="704" width="14" height="20" rx="2" fill="#1e293b" opacity="0.6"/><rect x="690" y="704" width="14" height="20" rx="2" fill="#fde68a" opacity="0.95"/><rect x="716" y="704" width="14" height="20" rx="2" fill="#1e293b" opacity="0.6"/><rect x="742" y="704" width="14" height="20" rx="2" fill="#1e293b" opacity="0.6"/><rect x="664" y="742" width="14" height="20" rx="2" fill="#fde68a" opacity="0.95"/><rect x="690" y="742" width="14" height="20" rx="2" fill="#1e293b" opacity="0.6"/><rect x="716" y="742" width="14" height="20" rx="2" fill="#1e293b" opacity="0.6"/><rect x="742" y="742" width="14" height="20" rx="2" fill="#fde68a" opacity="0.95"/><rect x="664" y="780" width="14" height="20" rx="2" fill="#1e293b" opacity="0.6"/><rect x="690" y="780" width="14" height="20" rx="2" fill="#1e293b" opacity="0.6"/><rect x="716" y="780" width="14" height="20" rx="2" fill="#fde68a" opacity="0.95"/><rect x="742" y="780" width="14" height="20" rx="2" fill="#1e293b" opacity="0.6"/><rect x="664" y="818" width="14" height="20" rx="2" fill="#1e293b" opacity="0.6"/><rect x="690" y="818" width="14" height="20" rx="2" fill="#fde68a" opacity="0.95"/><rect x="716" y="818" width="14" height="20" rx="2" fill="#1e293b" opacity="0.6"/><rect x="742" y="818" width="14" height="20" rx="2" fill="#fde68a" opacity="0.95"/><rect x="664" y="856" width="14" height="20" rx="2" fill="#fde68a" opacity="0.95"/><rect x="690" y="856" width="14" height="20" rx="2" fill="#1e293b" opacity="0.6"/><rect x="716" y="856" width="14" height="20" rx="2" fill="#fde68a" opacity="0.95"/><rect x="742" y="856" width="14" height="20" rx="2" fill="#1e293b" opacity="0.6"/><rect x="664" y="894" width="14" height="20" rx="2" fill="#1e293b" opacity="0.6"/><rect x="690" y="894" width="14" height="20" rx="2" fill="#fde68a" opacity="0.95"/><rect x="716" y="894" width="14" height="20" rx="2" fill="#1e293b" opacity="0.6"/><rect x="742" y="894" width="14" height="20" rx="2" fill="#1e293b" opacity="0.6"/><rect x="664" y="932" width="14" height="20" rx="2" fill="#fde68a" opacity="0.95"/><rect x="690" y="932" width="14" height="20" rx="2" fill="#1e293b" opacity="0.6"/><rect x="716" y="932" width="14" height="20" rx="2" fill="#1e293b" opacity="0.6"/><rect x="742" y="932" width="14" height="20" rx="2" fill="#fde68a" opacity="0.95"/><rect x="664" y="970" width="14" height="20" rx="2" fill="#1e293b" opacity="0.6"/><rect x="690" y="970" width="14" height="20" rx="2" fill="#1e293b" opacity="0.6"/><rect x="716" y="970" width="14" height="20" rx="2" fill="#fde68a" opacity="0.95"/><rect x="742" y="970" width="14" height="20" rx="2" fill="#1e293b" opacity="0.6"/><rect x="664" y="1008" width="14" height="20" rx="2" fill="#1e293b" opacity="0.6"/><rect x="690" y="1008" width="14" height="20" rx="2" fill="#fde68a" opacity="0.95"/><rect x="716" y="1008" width="14" height="20" rx="2" fill="#1e293b" opacity="0.6"/><rect x="742" y="1008" width="14" height="20" rx="2" fill="#fde68a" opacity="0.95"/><rect x="770" y="480" width="140" height="610" fill="#1e293b"/><rect x="784" y="502" width="14" height="20" rx="2" fill="#fde68a" opacity="0.95"/><rect x="810" y="502" width="14" height="20" rx="2" fill="#1e293b" opacity="0.6"/><rect x="836" y="502" width="14" height="20" rx="2" fill="#fde68a" opacity="0.95"/><rect x="862" y="502" width="14" height="20" rx="2" fill="#1e293b" opacity="0.6"/><rect x="784" y="540" width="14" height="20" rx="2" fill="#1e293b" opacity="0.6"/><rect x="810" y="540" width="14" height="20" rx="2" fill="#fde68a" opacity="0.95"/><rect x="836" y="540" width="14" height="20" rx="2" fill="#1e293b" opacity="0.6"/><rect x="862" y="540" width="14" height="20" rx="2" fill="#1e293b" opacity="0.6"/><rect x="784" y="578" width="14" height="20" rx="2" fill="#fde68a" opacity="0.95"/><rect x="810" y="578" width="14" height="20" rx="2" fill="#1e293b" opacity="0.6"/><rect x="836" y="578" width="14" height="20" rx="2" fill="#1e293b" opacity="0.6"/><rect x="862" y="578" width="14" height="20" rx="2" fill="#fde68a" opacity="0.95"/><rect x="784" y="616" width="14" height="20" rx="2" fill="#1e293b" opacity="0.6"/><rect x="810" y="616" width="14" height="20" rx="2" fill="#1e293b" opacity="0.6"/><rect x="836" y="616" width="14" height="20" rx="2" fill="#fde68a" opacity="0.95"/><rect x="862" y="616" width="14" height="20" rx="2" fill="#1e293b" opacity="0.6"/><rect x="784" y="654" width="14" height="20" rx="2" fill="#1e293b" opacity="0.6"/><rect x="810" y="654" width="14" height="20" rx="2" fill="#fde68a" opacity="0.95"/><rect x="836" y="654" width="14" height="20" rx="2" fill="#1e293b" opacity="0.6"/><rect x="862" y="654" width="14" height="20" rx="2" fill="#fde68a" opacity="0.95"/><rect x="784" y="692" width="14" height="20" rx="2" fill="#fde68a" opacity="0.95"/><rect x="810" y="692" width="14" height="20" rx="2" fill="#1e293b" opacity="0.6"/><rect x="836" y="692" width="14" height="20" rx="2" fill="#fde68a" opacity="0.95"/><rect x="862" y="692" width="14" height="20" rx="2" fill="#1e293b" opacity="0.6"/><rect x="784" y="730" width="14" height="20" rx="2" fill="#1e293b" opacity="0.6"/><rect x="810" y="730" width="14" height="20" rx="2" fill="#fde68a" opacity="0.95"/><rect x="836" y="730" width="14" height="20" rx="2" fill="#1e293b" opacity="0.6"/><rect x="862" y="730" width="14" height="20" rx="2" fill="#1e293b" opacity="0.6"/><rect x="784" y="768" width="14" height="20" rx="2" fill="#fde68a" opacity="0.95"/><rect x="810" y="768" width="14" height="20" rx="2" fill="#1e293b" opacity="0.6"/><rect x="836" y="768" width="14" height="20" rx="2" fill="#1e293b" opacity="0.6"/><rect x="862" y="768" width="14" height="20" rx="2" fill="#fde68a" opacity="0.95"/><rect x="784" y="806" width="14" height="20" rx="2" fill="#1e293b" opacity="0.6"/><rect x="810" y="806" width="14" height="20" rx="2" fill="#1e293b" opacity="0.6"/><rect x="836" y="806" width="14" height="20" rx="2" fill="#fde68a" opacity="0.95"/><rect x="862" y="806" width="14" height="20" rx="2" fill="#1e293b" opacity="0.6"/><rect x="784" y="844" width="14" height="20" rx="2" fill="#1e293b" opacity="0.6"/><rect x="810" y="844" width="14" height="20" rx="2" fill="#fde68a" opacity="0.95"/><rect x="836" y="844" width="14" height="20" rx="2" fill="#1e293b" opacity="0.6"/><rect x="862" y="844" width="14" height="20" rx="2" fill="#fde68a" opacity="0.95"/><rect x="784" y="882" width="14" height="20" rx="2" fill="#fde68a" opacity="0.95"/><rect x="810" y="882" width="14" height="20" rx="2" fill="#1e293b" opacity="0.6"/><rect x="836" y="882" width="14" height="20" rx="2" fill="#fde68a" opacity="0.95"/><rect x="862" y="882" width="14" height="20" rx="2" fill="#1e293b" opacity="0.6"/><rect x="784" y="920" width="14" height="20" rx="2" fill="#1e293b" opacity="0.6"/><rect x="810" y="920" width="14" height="20" rx="2" fill="#fde68a" opacity="0.95"/><rect x="836" y="920" width="14" height="20" rx="2" fill="#1e293b" opacity="0.6"/><rect x="862" y="920" width="14" height="20" rx="2" fill="#1e293b" opacity="0.6"/><rect x="784" y="958" width="14" height="20" rx="2" fill="#fde68a" opacity="0.95"/><rect x="810" y="958" width="14" height="20" rx="2" fill="#1e293b" opacity="0.6"/><rect x="836" y="958" width="14" height="20" rx="2" fill="#1e293b" opacity="0.6"/><rect x="862" y="958" width="14" height="20" rx="2" fill="#fde68a" opacity="0.95"/><rect x="784" y="996" width="14" height="20" rx="2" fill="#1e293b" opacity="0.6"/><rect x="810" y="996" width="14" height="20" rx="2" fill="#1e293b" opacity="0.6"/><rect x="836" y="996" width="14" height="20" rx="2" fill="#fde68a" opacity="0.95"/><rect x="862" y="996" width="14" height="20" rx="2" fill="#1e293b" opacity="0.6"/><rect x="784" y="1034" width="14" height="20" rx="2" fill="#1e293b" opacity="0.6"/><rect x="810" y="1034" width="14" height="20" rx="2" fill="#fde68a" opacity="0.95"/><rect x="836" y="1034" width="14" height="20" rx="2" fill="#1e293b" opacity="0.6"/><rect x="862" y="1034" width="14" height="20" rx="2" fill="#fde68a" opacity="0.95"/>
  <rect y="1080" width="900" height="120" fill="#0b1120"/>
  <g fill="#334155"><rect x="20" y="1168" width="56" height="6" rx="3"/><rect x="120" y="1168" width="56" height="6" rx="3"/><rect x="220" y="1168" width="56" height="6" rx="3"/><rect x="320" y="1168" width="56" height="6" rx="3"/><rect x="420" y="1168" width="56" height="6" rx="3"/><rect x="520" y="1168" width="56" height="6" rx="3"/><rect x="620" y="1168" width="56" height="6" rx="3"/><rect x="720" y="1168" width="56" height="6" rx="3"/><rect x="820" y="1168" width="56" height="6" rx="3"/></g>
  <rect x="90" y="1060" width="6" height="80" fill="#334155"/><circle cx="93" cy="1058" r="10" fill="#fde68a"/><ellipse cx="93" cy="1150" rx="60" ry="14" fill="#fde68a" opacity="0.18"/><rect x="270" y="1060" width="6" height="80" fill="#334155"/><circle cx="273" cy="1058" r="10" fill="#fde68a"/><ellipse cx="273" cy="1150" rx="60" ry="14" fill="#fde68a" opacity="0.18"/><rect x="450" y="1060" width="6" height="80" fill="#334155"/><circle cx="453" cy="1058" r="10" fill="#fde68a"/><ellipse cx="453" cy="1150" rx="60" ry="14" fill="#fde68a" opacity="0.18"/><rect x="630" y="1060" width="6" height="80" fill="#334155"/><circle cx="633" cy="1058" r="10" fill="#fde68a"/><ellipse cx="633" cy="1150" rx="60" ry="14" fill="#fde68a" opacity="0.18"/><rect x="810" y="1060" width="6" height="80" fill="#334155"/><circle cx="813" cy="1058" r="10" fill="#fde68a"/><ellipse cx="813" cy="1150" rx="60" ry="14" fill="#fde68a" opacity="0.18"/>
</svg>
